Coordinates
version=1
nRows=54
nColumns=12
inDegrees=yes

Units are S.I. units (second, meters, Newtons, ...)
Angles are in degrees

endheader
time	SC_y	SC_z	SC_x	AC_y	AC_z	AC_x	GH_y	GH_z	GH_yy	EL_x	PS_y
       0.0              -21.32          20.18          27.96          58.61          2.722          1.976          165.9          20.59         -107.0          38.13           43.8
   0.03121              -21.32          20.18          27.95          58.61           2.72          1.977          165.9          20.59         -107.0          38.14           43.8
   0.06243              -21.32          20.18          27.95          58.61          2.718          1.979          165.9          20.58         -107.0          38.15           43.8
   0.09364              -21.32          20.18          27.95           58.6          2.716           1.98          165.8          20.58         -106.9          38.15           43.8
    0.1249              -21.32          20.19          27.95           58.6          2.714          1.982          165.8          20.57         -106.9          38.16           43.8
    0.1561              -21.33          20.19          27.95           58.6          2.712          1.984          165.8          20.57         -106.8          38.17           43.8
    0.1873              -21.33          20.19          27.94           58.6          2.709          1.986          165.8          20.56         -106.8          38.18           43.8
    0.2185              -21.33           20.2          27.94           58.6          2.706          1.988          165.7          20.56         -106.7          38.19           43.8
    0.2497              -21.33           20.2          27.94           58.6          2.703          1.991          165.7          20.55         -106.7           38.2           43.8
    0.2809              -21.34           20.2          27.93           58.6            2.7          1.993          165.7          20.55         -106.6          38.21          43.79
    0.3121              -21.34          20.21          27.93           58.6          2.697          1.996          165.6          20.54         -106.5          38.23          43.79
    0.3434              -21.34          20.21          27.93           58.6          2.693          1.999          165.6          20.53         -106.5          38.24          43.79
    0.3746              -21.35          20.22          27.92           58.6          2.689          2.002          165.6          20.52         -106.4          38.26          43.79
    0.4058              -21.35          20.22          27.92           58.6          2.685          2.006          165.5          20.52         -106.3          38.27          43.79
     0.437              -21.35          20.23          27.91           58.6          2.681          2.009          165.5          20.51         -106.2          38.29          43.79
    0.4682              -21.36          20.23          27.91           58.6          2.676          2.013          165.4           20.5         -106.1          38.31          43.79
    0.4994              -21.36          20.24           27.9           58.6           2.67          2.018          165.4          20.48         -106.0          38.33          43.79
    0.5306              -21.37          20.25           27.9           58.6          2.664          2.022          165.3          20.47         -105.9          38.35          43.79
    0.5619              -21.37          20.25          27.89          58.59          2.658          2.028          165.2          20.46         -105.8          38.38          43.79
    0.5931              -21.38          20.26          27.88          58.59          2.651          2.033          165.2          20.45         -105.6           38.4          43.79
    0.6243              -21.39          20.27          27.88          58.59          2.643           2.04          165.1          20.43         -105.5          38.43          43.78
    0.6555              -21.39          20.28          27.87          58.59          2.635          2.046          165.0          20.41         -105.3          38.47          43.78
    0.6867               -21.4          20.29          27.86          58.59          2.625          2.054          164.9          20.39         -105.1           38.5          43.78
    0.7179              -21.41          20.31          27.85          58.59          2.615          2.062          164.8          20.37         -104.9          38.54          43.78
    0.7491              -21.42          20.32          27.83          58.58          2.603          2.072          164.7          20.35         -104.7          38.59          43.78
    0.7803              -21.43          20.34          27.82          58.58          2.591          2.082          164.5          20.32         -104.5          38.63          43.77
    0.8116              -21.45          20.35          27.81          58.58          2.576          2.094          164.4          20.29         -104.2          38.69          43.77
    0.8428              -21.46          20.37          27.79          58.58           2.56          2.107          164.2          20.26         -103.9          38.75          43.77
     0.874              -21.48          20.39          27.77          58.57          2.542          2.122          164.0          20.22         -103.5          38.82          43.77
    0.9052               -21.5          20.42          27.75          58.57          2.521          2.139          163.8          20.18         -103.1           38.9          43.76
    0.9364              -21.52          20.45          27.72          58.56          2.497          2.158          163.6          20.13         -102.6          38.99          43.76
    0.9676              -21.54          20.48           27.7          58.56           2.47           2.18          163.3          20.08         -102.1           39.1          43.75
    0.9988              -21.57          20.52          27.66          58.55          2.438          2.206          163.0          20.01         -101.5          39.22          43.75
      1.03               -21.6          20.56          27.63          58.55          2.402          2.235          162.6          19.94         -100.8          39.36          43.74
     1.061              -21.64          20.62          27.58          58.54          2.359           2.27          162.2          19.85         -99.93          39.52          43.73
     1.092              -21.69          20.68          27.53          58.53          2.308          2.311          161.6          19.75         -98.94          39.71          43.72
     1.124              -21.74          20.75          27.47          58.52          2.248          2.359          161.0          19.63         -97.76          39.94          43.71
     1.155               -21.8          20.84          27.39          58.51          2.177          2.418          160.3          19.48         -96.36          40.22           43.7
     1.186              -21.88          20.94           27.3          58.49           2.09          2.488          159.4          19.31         -94.66          40.55          43.68
     1.217              -21.98          21.07          27.19          58.47          1.983          2.574          158.3          19.09         -92.58          40.96          43.66
     1.249              -22.09          21.23          27.06          58.45          1.852           2.68          156.9          18.82         -90.01          41.46          43.64
      1.28              -22.24          21.43          26.89          58.42          1.689          2.813          155.3          18.49         -86.81          42.09          43.61
     1.311              -22.42          21.68          26.68          58.38          1.483           2.98          153.1          18.07         -82.79          42.88          43.57
     1.342              -22.66          21.99          26.41          58.33          1.221          3.192          150.4          17.54         -77.66          43.88          43.52
     1.373              -22.96           22.4          26.06          58.27         0.8857          3.463          147.0          16.86         -71.11          45.16          43.46
     1.405              -23.34          22.92          25.62          58.19         0.4556          3.812          142.6          15.99         -62.69          46.81          43.38
     1.436              -23.84          23.58          25.05          58.09       -0.09382          4.257          136.9          14.87         -51.94          48.91          43.28
     1.467              -24.45          24.42          24.34          57.97        -0.7846          4.816          129.8          13.47         -38.43          51.55          43.16
     1.498              -25.21          25.44          23.47          57.81         -1.626          5.498          121.1          11.76         -21.96          54.78           43.0
     1.529              -26.08          26.62          22.47          57.64         -2.602          6.288          111.1          9.781         -2.874          58.51          42.83
     1.561              -27.03           27.9          21.38          57.44         -3.659          7.144          100.2          7.636           17.8          62.56          42.63
     1.592              -27.97          29.18          20.29          57.25         -4.715            8.0          89.37          5.491          38.47           66.6          42.44
     1.623              -28.84          30.36          19.28          57.07         -5.691           8.79          79.33           3.51          57.55          70.34          42.26
     1.654               -29.6          31.38          18.42          56.92         -6.533          9.472          70.67          1.801          74.02          73.56          42.11
